HIERARCHY
ROOT joint_0
{
	OFFSET 0.000000 0.000000 0.000000
	CHANNELS 6 Xposition Yposition Zposition Zrotation Yrotation Xrotation 
	JOINT joint_1
	{
		OFFSET 6.590088 -1.122192 114.019043
		CHANNELS 3 Zrotation Yrotation Xrotation
		JOINT joint_2
		{
			OFFSET -5.956055 -0.820435 104.151001
			CHANNELS 3 Zrotation Yrotation Xrotation
			JOINT joint_3
			{
				OFFSET -7.343506 -1.103027 103.942993
				CHANNELS 3 Zrotation Yrotation Xrotation
				JOINT joint_4
				{
					OFFSET 3.109131 -2.857056 147.715942
					CHANNELS 3 Zrotation Yrotation Xrotation
					JOINT joint_5
					{
						OFFSET 28.592285 -2.852295 87.703979
						CHANNELS 3 Zrotation Yrotation Xrotation
						End Site
						{
							OFFSET 0.000000 0.000000 0.000000
						}
					}
				}
				JOINT joint_6
				{
					OFFSET -0.332520 -33.687378 82.401978
					CHANNELS 3 Zrotation Yrotation Xrotation
					JOINT joint_7
					{
						OFFSET -7.397461 -168.719177 -22.750977
						CHANNELS 3 Zrotation Yrotation Xrotation
						JOINT joint_8
						{
							OFFSET 17.065918 -24.903137 -272.721069
							CHANNELS 3 Zrotation Yrotation Xrotation
							JOINT joint_9
							{
								OFFSET 33.311279 -37.031616 -278.192993
								CHANNELS 3 Zrotation Yrotation Xrotation
								End Site
								{
									OFFSET 0.000000 0.000000 0.000000
								}
							}
						}
					}
				}
				JOINT joint_10
				{
					OFFSET 3.914307 30.461670 83.552979
					CHANNELS 3 Zrotation Yrotation Xrotation
					JOINT joint_11
					{
						OFFSET 15.543701 166.845459 -30.963013
						CHANNELS 3 Zrotation Yrotation Xrotation
						JOINT joint_12
						{
							OFFSET 35.734863 35.017700 -269.786011
							CHANNELS 3 Zrotation Yrotation Xrotation
							JOINT joint_13
							{
								OFFSET 70.506592 13.977783 -273.320007
								CHANNELS 3 Zrotation Yrotation Xrotation
								End Site
								{
									OFFSET 0.000000 0.000000 0.000000
								}
							}
						}
					}
				}
			}
		}
	}
	JOINT joint_14
	{
		OFFSET -0.314697 -95.093994 -116.004028
		CHANNELS 3 Zrotation Yrotation Xrotation
		JOINT joint_15
		{
			OFFSET -22.490723 2.017883 -455.510986
			CHANNELS 3 Zrotation Yrotation Xrotation
			JOINT joint_16
			{
				OFFSET -46.427490 7.144104 -496.360985
				CHANNELS 3 Zrotation Yrotation Xrotation
				JOINT joint_17
				{
					OFFSET 209.055420 -37.122803 -85.191002
					CHANNELS 3 Zrotation Yrotation Xrotation
					End Site
					{
						OFFSET 0.000000 0.000000 0.000000
					}
				}
			}
		}
	}
	JOINT joint_18
	{
		OFFSET 5.652832 94.642578 -116.244019
		CHANNELS 3 Zrotation Yrotation Xrotation
		JOINT joint_19
		{
			OFFSET -12.379883 -7.332642 -455.843994
			CHANNELS 3 Zrotation Yrotation Xrotation
			JOINT joint_20
			{
				OFFSET -45.227051 -8.172241 -496.457985
				CHANNELS 3 Zrotation Yrotation Xrotation
				JOINT joint_21
				{
					OFFSET 210.522949 -11.530396 -88.809004
					CHANNELS 3 Zrotation Yrotation Xrotation
					End Site
					{
						OFFSET 0.000000 0.000000 0.000000
					}
				}
			}
		}
	}
}
MOTION
Frames: 13
Frame Time: 0.016667
-3059.920166 894.648987 1184.292969 -4.318307 -0.050951 -0.038432 0.193864 -3.366411 -1.567361 0.309030 0.559427 0.328135 0.252299 -0.730349 -0.262705 -0.042250 -0.982971 0.039962 0.000000 0.000000 0.000000 1.213379 2.560108 2.665712 -0.101137 2.794219 1.266951 0.073893 1.333286 2.073322 0.000000 0.000000 0.000000 1.087083 1.649939 1.642390 -0.437326 1.803961 -3.022231 0.398911 4.580796 0.567686 0.000000 0.000000 0.000000 -0.073742 -0.483910 0.268313 -0.026676 -0.392683 -0.706121 -0.088650 1.523308 0.234355 0.000000 0.000000 0.000000 0.623968 -1.586872 -1.977454 0.536918 -0.920879 0.553835 0.497333 2.629644 0.353255 0.000000 0.000000 0.000000 
-3059.082520 894.389160 1184.151001 -4.337643 -0.019248 -0.048101 0.205890 -3.326131 -1.597647 0.323475 0.533325 0.337014 0.266414 -0.699663 -0.268245 -0.042678 -1.021508 0.037914 0.000000 0.000000 0.000000 1.196040 2.549328 2.711351 -0.094914 2.779625 1.333145 0.073346 1.332050 2.067867 0.000000 0.000000 0.000000 1.057509 1.616705 1.663612 -0.447592 1.783539 -3.099166 0.409665 4.606742 0.603097 0.000000 0.000000 0.000000 -0.064916 -0.471627 0.345135 -0.009008 -0.400621 -0.812450 -0.081460 1.542972 0.240776 0.000000 0.000000 0.000000 0.623624 -1.549165 -1.991591 0.536025 -0.971585 0.618326 0.500810 2.650642 0.355870 0.000000 0.000000 0.000000 
-3058.244873 894.128296 1184.008057 -4.356661 0.011947 -0.057647 0.218071 -3.284178 -1.628833 0.338122 0.505107 0.346307 0.280790 -0.667785 -0.273051 -0.043161 -1.060815 0.035967 0.000000 0.000000 0.000000 1.177685 2.538551 2.756154 -0.088629 2.764853 1.399599 0.072859 1.330681 2.062761 0.000000 0.000000 0.000000 1.026527 1.583253 1.684692 -0.457834 1.763174 -3.176299 0.420412 4.632460 0.638493 0.000000 0.000000 0.000000 -0.056137 -0.458608 0.421918 0.008603 -0.408722 -0.918893 -0.074360 1.562440 0.247125 0.000000 0.000000 0.000000 0.623045 -1.510893 -2.005934 0.534896 -1.022343 0.683010 0.504054 2.671761 0.358394 0.000000 0.000000 0.000000 
-3057.415527 893.888184 1183.873047 -4.368225 0.035552 -0.063064 0.226438 -3.243873 -1.663134 0.349148 0.481514 0.356304 0.291327 -0.640614 -0.278563 -0.043473 -1.100608 0.033479 0.000000 0.000000 0.000000 1.164554 2.527643 2.797363 -0.083142 2.750546 1.466901 0.070520 1.337957 2.051886 0.000000 0.000000 0.000000 1.000060 1.552347 1.704251 -0.467604 1.744101 -3.249517 0.430500 4.657385 0.671531 0.000000 0.000000 0.000000 -0.048879 -0.436292 0.488068 0.023682 -0.418068 -1.015851 -0.068821 1.581199 0.252714 0.000000 0.000000 0.000000 0.619537 -1.467608 -2.026303 0.530662 -1.068174 0.748553 0.504523 2.689409 0.359559 0.000000 0.000000 0.000000 
-3056.608887 893.678040 1183.758057 -4.394421 0.069119 -0.063333 0.239828 -3.224482 -1.701145 0.365496 0.463698 0.368116 0.306687 -0.623731 -0.286709 -0.043937 -1.137044 0.031747 0.000000 0.000000 0.000000 1.148628 2.518653 2.840576 -0.079446 2.738138 1.531805 0.064717 1.359749 2.028409 0.000000 0.000000 0.000000 0.977613 1.527061 1.721064 -0.475905 1.729392 -3.317143 0.440127 4.678423 0.703820 0.000000 0.000000 0.000000 -0.035757 -0.427868 0.537933 0.043089 -0.427588 -1.096850 -0.057649 1.603129 0.261159 0.000000 0.000000 0.000000 0.619812 -1.439491 -2.053858 0.529566 -1.107055 0.814192 0.508188 2.704292 0.361918 0.000000 0.000000 0.000000 
-3055.811768 893.486694 1183.651001 -4.413073 0.094829 -0.059055 0.249320 -3.205712 -1.743166 0.378191 0.449811 0.380701 0.318184 -0.611665 -0.295539 -0.044282 -1.173488 0.029674 0.000000 0.000000 0.000000 1.138617 2.509885 2.880649 -0.076531 2.726662 1.597462 0.057242 1.388990 1.999351 0.000000 0.000000 0.000000 0.959489 1.504505 1.736907 -0.483661 1.716259 -3.380841 0.449045 4.697988 0.733705 0.000000 0.000000 0.000000 -0.024189 -0.409822 0.576910 0.059932 -0.438353 -1.168526 -0.048067 1.623758 0.268725 0.000000 0.000000 0.000000 0.616941 -1.406054 -2.087701 0.525148 -1.141176 0.880636 0.508851 2.716290 0.362854 0.000000 0.000000 0.000000 
-3054.986572 893.310120 1183.515015 -4.346928 0.052066 -0.049368 0.227010 -3.127939 -1.789334 0.359117 0.434920 0.391134 0.298370 -0.589734 -0.301094 -0.044941 -1.223285 0.027504 0.000000 0.000000 0.000000 1.153451 2.497277 2.894934 -0.071997 2.712764 1.677642 0.051309 1.414069 1.978485 0.000000 0.000000 0.000000 0.937639 1.477875 1.757137 -0.492839 1.699976 -3.445455 0.456447 4.720181 0.756630 0.000000 0.000000 0.000000 -0.039707 -0.302798 0.610812 0.049105 -0.453636 -1.238524 -0.064864 1.626833 0.262432 0.000000 0.000000 0.000000 0.586133 -1.302228 -2.130148 0.493786 -1.169330 0.951577 0.484313 2.715220 0.352464 0.000000 0.000000 0.000000 
-3054.296875 893.165710 1183.326050 -4.121860 -0.135395 -0.030504 0.146785 -2.927738 -1.850718 0.282821 0.419826 0.401965 0.221651 -0.546552 -0.303808 -0.047242 -1.280120 0.029996 0.000000 0.000000 0.000000 1.233536 2.461015 2.875718 -0.065369 2.681077 1.785278 0.043298 1.455838 1.959198 0.000000 0.000000 0.000000 0.880015 1.427866 1.776745 -0.504027 1.666652 -3.511505 0.468601 4.764694 0.791324 0.000000 0.000000 0.000000 -0.106849 -0.032394 0.639976 -0.013889 -0.458083 -1.311225 -0.132177 1.600478 0.230341 0.000000 0.000000 0.000000 0.504089 -1.068970 -2.184922 0.412874 -1.168428 1.026226 0.413275 2.694914 0.321443 0.000000 0.000000 0.000000 
-3053.580078 893.036072 1183.108032 -3.812147 -0.392280 -0.007046 0.034528 -2.665633 -1.917918 0.174757 0.402434 0.412221 0.113472 -0.494876 -0.304146 -0.050134 -1.349336 0.033387 0.000000 0.000000 0.000000 1.338632 2.421446 2.831104 -0.057108 2.647523 1.907107 0.037114 1.492347 1.949253 0.000000 0.000000 0.000000 0.818792 1.374077 1.802233 -0.516540 1.630657 -3.579063 0.479422 4.812042 0.819595 0.000000 0.000000 0.000000 -0.201022 0.327558 0.664002 -0.104670 -0.466922 -1.381583 -0.225917 1.558069 0.184636 0.000000 0.000000 0.000000 0.394244 -0.764020 -2.248241 0.305072 -1.162089 1.105485 0.317096 2.661878 0.279139 0.000000 0.000000 0.000000 
-3052.308105 892.859314 1182.910034 -3.563242 -0.548628 0.010489 -0.061901 -2.481507 -1.960565 0.081003 0.383711 0.416062 0.020381 -0.450621 -0.300255 -0.051100 -1.469357 0.026457 0.000000 0.000000 0.000000 1.377406 2.431405 2.767313 -0.046473 2.654215 2.014167 0.046917 1.447919 1.981470 0.000000 0.000000 0.000000 0.849572 1.367206 1.852695 -0.530461 1.626652 -3.647537 0.468737 4.805314 0.779165 0.000000 0.000000 0.000000 -0.274223 0.632009 0.690186 -0.174883 -0.532611 -1.446266 -0.298638 1.527378 0.149575 0.000000 0.000000 0.000000 0.301535 -0.500042 -2.310372 0.214287 -1.221357 1.194937 0.236952 2.632411 0.243776 0.000000 0.000000 0.000000 
-3050.450928 892.662903 1182.728027 -3.430202 -0.525606 0.012426 -0.125745 -2.452169 -1.949887 0.016048 0.356629 0.401879 -0.041962 -0.419737 -0.287960 -0.051075 -1.622595 0.013378 0.000000 0.000000 0.000000 1.300309 2.483239 2.705109 -0.035183 2.690049 2.054706 0.072855 1.338799 2.073589 0.000000 0.000000 0.000000 1.054935 1.404954 1.935229 -0.554154 1.638663 -3.743966 0.437936 4.774912 0.670891 0.000000 0.000000 0.000000 -0.306347 0.804991 0.727613 -0.203756 -0.680605 -1.506117 -0.330139 1.511148 0.133874 0.000000 0.000000 0.000000 0.241632 -0.340946 -2.361972 0.155705 -1.379324 1.296879 0.187041 2.606502 0.221325 0.000000 0.000000 0.000000 
-3048.038818 892.420349 1182.564941 -3.357281 -0.401179 0.009547 -0.173445 -2.501924 -1.912373 -0.034532 0.327808 0.379775 -0.089149 -0.396058 -0.272423 -0.049743 -1.826375 -0.008062 0.000000 0.000000 0.000000 1.155626 2.584753 2.626145 -0.021207 2.766352 2.076435 0.115156 1.149171 2.210352 0.000000 0.000000 0.000000 1.351605 1.489596 2.041170 -0.579010 1.682375 -3.837695 0.385636 4.692262 0.492853 0.000000 0.000000 0.000000 -0.317610 0.921743 0.767318 -0.212029 -0.885440 -1.561223 -0.340775 1.506661 0.128759 0.000000 0.000000 0.000000 0.198543 -0.224069 -2.412121 0.113830 -1.602560 1.408852 0.152701 2.585670 0.205698 0.000000 0.000000 0.000000 
-3044.640137 891.993103 1182.470947 -3.319814 -0.241643 0.023566 -0.208813 -2.532525 -1.894992 -0.070830 0.311028 0.368677 -0.123614 -0.383555 -0.264161 -0.041281 -2.161449 -0.061852 0.000000 0.000000 0.000000 0.997675 2.814609 2.481893 0.002538 2.961778 2.192257 0.188868 0.756079 2.380186 0.000000 0.000000 0.000000 1.591581 1.680912 2.165316 -0.579384 1.841302 -3.841556 0.288179 4.413772 0.180535 0.000000 0.000000 0.000000 -0.321927 1.064848 0.789066 -0.215045 -1.121552 -1.607334 -0.345343 1.529619 0.130991 0.000000 0.000000 0.000000 0.169564 -0.072521 -2.480038 0.086273 -1.861073 1.530228 0.131652 2.588201 0.196937 0.000000 0.000000 0.000000 
